#define DeleteCursorData_width 32
#define DeleteCursorData_height 32
static unsigned char DeleteCursorData_bits[] = {
   0x03, 0x00, 0x00, 0xc0, 0x07, 0x00, 0x00, 0xe0, 0x0e, 0x00, 0x00, 0x70,
   0x1c, 0x00, 0x00, 0x38, 0x38, 0x00, 0x00, 0x1c, 0x70, 0x00, 0x00, 0x0e,
   0xe0, 0x00, 0x00, 0x07, 0xc0, 0x01, 0x80, 0x03, 0x80, 0x03, 0xc0, 0x01,
   0x00, 0x07, 0xe0, 0x00, 0x00, 0x0e, 0x70, 0x00, 0x00, 0x1c, 0x38, 0x00,
   0x00, 0x38, 0x1c, 0x00, 0x00, 0x30, 0x0c, 0x00, 0x00, 0x00, 0x00, 0x00,
   0x00, 0x00, 0x00, 0x00, 0x00, 0x00, 0x00, 0x00, 0x00, 0x00, 0x00, 0x00,
   0x00, 0x30, 0x0c, 0x00, 0x00, 0x38, 0x1c, 0x00, 0x00, 0x1c, 0x38, 0x00,
   0x00, 0x0e, 0x70, 0x00, 0x00, 0x07, 0xe0, 0x00, 0x80, 0x03, 0xc0, 0x01,
   0xc0, 0x01, 0x80, 0x03, 0xe0, 0x00, 0x00, 0x07, 0x70, 0x00, 0x00, 0x0e,
   0x38, 0x00, 0x00, 0x1c, 0x1c, 0x00, 0x00, 0x38, 0x0e, 0x00, 0x00, 0x70,
   0x07, 0x00, 0x00, 0xe0, 0x03, 0x00, 0x00, 0xc0 };
